<svg xmlns="http://www.w3.org/2000/svg" width="512" height="512" viewBox="0 0 512 512">
<g>
<path d="M 223.99 393.95 C211.68,397.38 194.67,397.40 182.00,394.01 C174.66,392.04 163.20,385.98 158.03,381.34 C149.63,373.78 143.00,360.78 143.00,351.84 L 143.00 348.00 L 158.74 348.00 L 159.41 352.19 C160.34,357.97 164.55,365.33 169.59,369.98 C190.25,389.02 231.88,384.39 243.32,361.77 C251.25,346.10 247.08,327.39 233.70,318.50 C223.82,311.94 218.62,310.69 198.50,310.06 L 180.50 309.50 L 180.50 295.50 L 196.50 294.90 C205.30,294.57 214.00,293.80 215.83,293.20 C225.69,289.93 234.46,281.69 237.96,272.42 C243.55,257.62 237.03,240.69 223.00,233.53 C212.72,228.29 196.05,227.59 184.80,231.91 C174.16,236.00 164.94,246.85 163.15,257.36 L 162.45 261.50 L 154.17 261.79 L 145.89 262.08 L 146.53 258.29 C148.57,246.15 153.63,236.41 161.88,228.77 C171.39,219.96 182.44,215.57 198.00,214.40 C215.08,213.13 232.05,218.53 243.09,228.75 C253.25,238.15 257.68,249.10 256.74,262.48 C255.48,280.53 245.23,293.40 227.26,299.49 L 220.50 301.78 L 224.50 302.48 C239.75,305.14 249.37,310.42 256.41,319.98 C269.40,337.63 266.80,362.52 250.26,378.87 C242.56,386.48 234.80,390.93 223.99,393.95 ZM 352.00 217.00 L 352.00 394.00 L 335.01 394.00 L 334.76 314.45 L 334.50 234.91 L 325.13 241.52 C319.97,245.15 309.40,252.39 301.63,257.61 L 287.50 267.10 L 287.21 258.87 C286.96,252.01 287.21,250.36 288.71,248.93 C289.69,247.98 300.40,240.41 312.50,232.10 L 334.50 217.00 Z" fill="rgb(69,66,65)"/>
<path d="M 381.00 25.60 C381.00,26.73 360.37,26.95 256.10,26.94 L 131.21 26.93 L 130.56 23.45 C130.20,21.53 130.18,19.52 130.51,18.98 C130.90,18.35 175.50,18.00 256.68,18.00 L 382.25 18.00 L 381.62 21.12 C381.28,22.84 381.00,24.86 381.00,25.60 ZM 398.11 106.99 C390.67,109.05 380.59,107.21 374.69,102.71 C370.32,99.38 365.23,91.74 364.39,87.26 C363.44,82.21 364.52,72.84 366.50,68.91 C370.15,61.69 379.32,54.31 381.12,57.16 C381.59,57.90 381.98,64.18 381.98,71.12 C382.00,82.23 382.24,84.03 384.01,86.29 C387.69,90.96 395.40,90.70 398.19,85.80 C399.02,84.34 399.68,78.29 400.00,69.21 L 400.50 54.92 L 405.26 57.95 C417.68,65.83 421.28,83.83 412.94,96.26 C409.87,100.83 403.39,105.52 398.11,106.99 ZM 133.71 104.90 C127.97,107.68 117.77,108.52 112.72,106.63 C96.07,100.41 89.52,81.74 98.56,66.30 C100.88,62.35 108.50,56.00 110.93,56.00 C111.63,56.00 112.00,60.30 112.00,68.53 C112.00,83.55 113.13,87.23 118.25,88.92 C122.12,90.19 124.46,89.64 127.75,86.68 C129.86,84.77 130.00,83.86 130.02,71.58 C130.02,64.38 130.41,57.90 130.88,57.16 C132.69,54.30 141.85,61.69 145.54,68.99 C147.80,73.47 148.62,84.59 147.04,89.37 C145.21,94.92 138.73,102.47 133.71,104.90 ZM 507.12 135.50 C507.33,143.32 507.28,143.50 504.92,143.63 C499.99,143.91 497.96,142.99 498.38,140.68 C499.42,134.94 495.72,110.20 492.31,100.03 C482.62,71.18 460.96,47.76 433.50,36.45 C422.33,31.85 405.23,27.44 401.93,28.31 C400.21,28.76 400.00,28.26 400.00,23.82 L 400.00 18.82 L 404.25 19.46 C444.72,25.50 476.75,47.49 493.40,80.67 C501.81,97.42 506.63,116.68 507.12,135.50 ZM 10.62 143.42 C9.04,143.74 7.13,144.00 6.38,144.00 C2.92,144.00 6.36,113.57 11.60,97.75 C14.87,87.86 22.78,72.30 28.20,65.09 C38.35,51.58 56.41,36.84 70.65,30.43 C81.94,25.36 95.34,21.45 107.75,19.61 L 112.00 18.98 L 112.00 23.49 C112.00,27.70 111.82,28.00 109.37,28.00 C106.59,28.00 104.42,28.50 91.58,32.06 C45.16,44.95 15.23,84.59 13.73,135.17 C13.50,142.76 13.47,142.86 10.62,143.42 Z" fill="rgb(198,54,50)"/>
<path d="M 0.00 0.00 L 512.00 0.00 L 512.00 512.00 L 0.00 512.00 ZM 381.00 25.60 C381.00,24.86 381.28,22.84 381.62,21.12 L 382.25 18.00 L 256.68 18.00 C175.50,18.00 130.90,18.35 130.51,18.98 C130.18,19.52 130.20,21.53 130.56,23.45 L 131.21 26.93 L 131.13 26.93 L 130.70 24.71 C130.47,23.50 130.22,30.60 130.15,40.50 C130.08,50.75 130.40,57.92 130.88,57.16 C130.41,57.90 130.02,64.38 130.02,71.58 C130.00,83.86 129.86,84.77 127.75,86.68 C124.46,89.64 122.12,90.19 118.25,88.92 C113.13,87.23 112.00,83.55 112.00,68.53 C112.00,60.30 111.63,56.00 110.93,56.00 C111.64,56.00 112.00,51.28 112.00,42.00 L 112.00 28.00 L 109.37 28.00 C111.82,28.00 112.00,27.70 112.00,23.49 L 112.00 18.98 L 107.75 19.61 C95.34,21.45 81.94,25.36 70.65,30.43 C56.41,36.84 38.35,51.58 28.20,65.09 C22.78,72.30 14.87,87.86 11.60,97.75 C6.36,113.57 2.92,144.00 6.38,144.00 C7.13,144.00 9.04,143.74 10.62,143.42 C11.84,143.18 12.54,143.02 12.96,142.34 C12.65,142.96 12.19,143.19 11.50,143.33 C11.49,143.33 11.49,143.33 11.49,143.33 C11.49,143.55 121.10,143.73 256.00,143.73 C388.27,143.73 496.11,143.54 500.14,143.31 C501.22,143.65 502.80,143.75 504.92,143.63 C507.28,143.50 507.33,143.32 507.12,135.50 C506.63,116.68 501.81,97.42 493.40,80.67 C476.75,47.49 444.72,25.50 404.25,19.46 L 400.00 18.82 L 400.00 23.82 C400.00,28.26 400.21,28.76 401.93,28.31 C401.96,28.30 402.00,28.29 402.04,28.28 C401.90,28.34 401.77,28.41 401.65,28.50 C400.00,29.64 400.00,33.16 400.00,41.48 L 400.00 54.70 L 400.50 55.01 L 400.00 69.21 C399.68,78.29 399.02,84.34 398.19,85.80 C395.40,90.70 387.69,90.96 384.01,86.29 C382.24,84.03 382.00,82.23 381.98,71.12 C381.98,64.18 381.59,57.90 381.12,57.16 C381.60,57.92 381.91,50.52 381.83,40.00 C381.76,29.83 381.51,22.73 381.29,24.23 L 380.87 26.95 L 256.10 26.94 C360.37,26.95 381.00,26.73 381.00,25.60 ZM 223.99 393.95 C234.80,390.93 242.56,386.48 250.26,378.87 C266.80,362.52 269.40,337.63 256.41,319.98 C249.37,310.42 239.75,305.14 224.50,302.48 L 220.50 301.78 L 227.26 299.49 C245.23,293.40 255.48,280.53 256.74,262.48 C257.68,249.10 253.25,238.15 243.09,228.75 C232.05,218.53 215.08,213.13 198.00,214.40 C182.44,215.57 171.39,219.96 161.88,228.77 C153.63,236.41 148.57,246.15 146.53,258.29 L 145.89 262.08 L 154.17 261.79 L 162.45 261.50 L 163.15 257.36 C164.94,246.85 174.16,236.00 184.80,231.91 C196.05,227.59 212.72,228.29 223.00,233.53 C237.03,240.69 243.55,257.62 237.96,272.42 C234.46,281.69 225.69,289.93 215.83,293.20 C214.00,293.80 205.30,294.57 196.50,294.90 L 180.50 295.50 L 180.50 309.50 L 198.50 310.06 C218.62,310.69 223.82,311.94 233.70,318.50 C247.08,327.39 251.25,346.10 243.32,361.77 C231.88,384.39 190.25,389.02 169.59,369.98 C164.55,365.33 160.34,357.97 159.41,352.19 L 158.74 348.00 L 143.00 348.00 L 143.00 351.84 C143.00,360.78 149.63,373.78 158.03,381.34 C163.20,385.98 174.66,392.04 182.00,394.01 C194.67,397.40 211.68,397.38 223.99,393.95 ZM 352.00 217.00 L 334.50 217.00 L 312.50 232.10 C300.40,240.41 289.69,247.98 288.71,248.93 C287.21,250.36 286.96,252.01 287.21,258.87 L 287.50 267.10 L 301.63 257.61 C309.40,252.39 319.97,245.15 325.13,241.52 L 334.50 234.91 L 334.76 314.45 L 335.01 394.00 L 352.00 394.00 ZM 114.57 107.15 C119.32,108.17 126.58,107.56 131.73,105.72 C126.34,107.70 119.17,108.35 114.57,107.15 ZM 412.55 65.03 C416.58,70.83 418.36,78.20 417.14,85.34 C418.20,78.27 416.55,70.87 412.55,65.03 ZM 428.37 34.50 C430.16,35.13 431.89,35.79 433.50,36.45 C439.70,39.01 445.60,42.18 451.13,45.88 C444.33,41.37 436.73,37.57 428.37,34.50 ZM 105.75 58.83 C103.78,60.36 101.71,62.29 100.19,64.08 C101.70,62.10 103.47,60.40 105.45,59.03 C105.55,58.96 105.65,58.90 105.75,58.83 ZM 95.13 75.01 C94.14,79.53 94.30,84.09 95.50,88.32 C94.31,84.30 94.05,80.01 94.95,75.81 C95.01,75.54 95.07,75.27 95.13,75.01 ZM 368.74 96.18 C367.03,93.87 365.65,91.47 364.96,89.37 C364.88,89.14 364.81,88.89 364.75,88.63 C365.47,90.88 366.95,93.62 368.74,96.18 ZM 390.02 107.79 C386.85,107.70 383.61,107.06 380.41,105.81 C383.40,106.95 386.73,107.64 390.02,107.79 ZM 409.30 100.39 C407.59,102.05 405.68,103.45 403.61,104.57 C405.62,103.40 407.59,101.96 409.30,100.39 ZM 499.81 143.19 C498.48,142.84 498.11,142.16 498.38,140.68 C498.16,141.89 498.62,142.72 499.81,143.19 ZM 366.57 68.78 C368.25,65.51 371.04,62.23 373.75,59.89 C371.05,62.23 368.27,65.50 366.57,68.78 ZM 134.02 104.74 C136.04,103.69 138.27,101.85 140.33,99.68 C138.26,101.88 136.02,103.73 134.02,104.74 ZM 106.20 103.23 C107.63,104.22 109.17,105.10 110.84,105.85 C109.20,105.13 107.64,104.25 106.20,103.23 ZM 365.10 73.17 C365.46,71.51 365.92,70.06 366.46,68.99 C366.50,68.92 366.53,68.85 366.57,68.78 C366.55,68.82 366.53,68.87 366.50,68.91 C365.96,69.99 365.48,71.47 365.10,73.17 ZM 13.70 136.15 C13.71,135.84 13.72,135.51 13.73,135.17 C15.23,84.59 45.16,44.95 91.58,32.06 C45.15,44.96 15.23,84.60 13.73,135.21 C13.72,135.54 13.71,135.85 13.70,136.15 Z" fill="rgb(242,241,241)"/>
<path d="M 11.50 143.33 C13.27,142.97 13.53,142.03 13.73,135.21 C15.23,84.60 45.15,44.96 91.58,32.06 C104.42,28.50 106.59,28.00 109.37,28.00 L 112.00 28.00 L 112.00 42.00 C112.00,51.28 111.64,56.00 110.93,56.00 C110.34,56.00 107.88,57.36 105.45,59.03 C100.22,62.63 96.50,68.57 94.95,75.81 C92.08,89.19 100.98,103.49 114.44,107.12 C119.66,108.53 128.30,107.51 133.83,104.84 C138.73,102.47 145.23,94.86 147.04,89.37 C148.62,84.59 147.80,73.47 145.54,68.99 C141.85,61.69 132.69,54.30 130.88,57.16 C130.40,57.92 130.08,50.75 130.15,40.50 C130.22,30.60 130.47,23.50 130.70,24.71 L 131.13 26.93 L 256.00 26.94 L 380.87 26.95 L 381.29 24.23 C381.51,22.73 381.76,29.83 381.83,40.00 C381.91,50.52 381.60,57.92 381.12,57.16 C379.31,54.30 370.15,61.69 366.46,68.99 C364.20,73.47 363.38,84.59 364.96,89.37 C366.77,94.86 373.27,102.47 378.17,104.84 C394.60,112.78 412.96,104.14 416.88,86.63 C419.36,75.58 414.45,63.68 404.99,57.80 L 400.00 54.70 L 400.00 41.82 C400.00,26.93 399.93,27.03 408.84,28.92 C427.34,32.85 443.04,39.61 455.66,49.07 C472.68,61.84 485.45,79.60 492.31,100.03 C495.72,110.20 499.42,134.94 498.38,140.68 C498.09,142.31 498.56,142.97 500.24,143.29 C501.48,143.53 391.58,143.73 256.00,143.73 C120.43,143.73 10.40,143.55 11.50,143.33 Z" fill="rgb(243,65,61)"/>
</g>
</svg>